<?xml version="1.0" standalone="no"?>
<!DOCTYPE svg PUBLIC "-//W3C//DTD SVG 20010904//EN"
 "http://www.w3.org/TR/2001/REC-SVG-20010904/DTD/svg10.dtd">
<svg version="1.0" xmlns="http://www.w3.org/2000/svg"
 width="700.000000pt" height="700.000000pt" viewBox="0 0 700.000000 700.000000"
 preserveAspectRatio="xMidYMid meet">
<metadata>
Created by potrace 1.14, written by Peter Selinger 2001-2017
</metadata>
<g transform="translate(0.000000,700.000000) scale(0.100000,-0.100000)"
fill="#000000" stroke="none">
<path d="M3319 6459 c-42 -3 -93 -12 -115 -19 -73 -23 -411 -168 -689 -295
-27 -12 -223 -101 -435 -198 -212 -96 -416 -189 -455 -207 -38 -18 -117 -54
-175 -80 -484 -219 -583 -275 -662 -372 -72 -88 -128 -202 -145 -291 -9 -49
-9 -678 1 -1222 4 -209 9 -495 11 -635 11 -600 21 -934 30 -1011 22 -174 157
-361 331 -460 78 -44 156 -83 364 -182 336 -159 946 -450 1135 -542 897 -437
892 -434 1005 -452 74 -12 191 -6 255 12 85 25 144 54 360 181 308 180 939
545 1081 625 22 12 84 47 139 79 55 31 120 68 145 82 609 337 692 398 787 584
48 93 51 104 51 174 0 41 4 462 8 935 4 473 7 1112 7 1421 l-1 560 -47 95
c-99 200 -182 269 -445 374 -52 20 -104 41 -115 46 -57 25 -649 249 -658 249
-2 0 -22 8 -43 17 -22 9 -43 18 -49 19 -5 2 -136 51 -290 109 -154 59 -302
115 -330 125 -27 10 -159 61 -292 114 -247 97 -349 135 -392 143 -14 2 -28 6
-32 8 -3 3 -51 7 -105 11 -55 3 -112 7 -129 8 -16 1 -64 -1 -106 -5z m346
-207 c105 -38 366 -139 430 -167 27 -12 353 -140 510 -200 76 -29 133 -51 438
-169 136 -53 250 -96 253 -96 3 0 20 -7 37 -14 59 -27 241 -87 326 -107 241
-58 411 -157 411 -240 0 -49 24 -35 -506 -304 -612 -311 -1006 -516 -1274
-663 -258 -142 -385 -199 -490 -223 -52 -12 -96 -23 -98 -25 -2 -1 1 -11 7
-22 17 -31 21 -133 26 -647 8 -841 16 -2585 12 -2585 -2 0 -18 5 -36 11 -21 7
-31 18 -32 32 -4 75 -8 459 -14 1387 -6 939 -9 1361 -15 1713 -1 59 -5 107 -8
108 -4 0 -14 2 -22 3 -8 2 -51 6 -95 10 -144 11 -194 28 -715 251 -361 155
-734 311 -1200 504 -69 29 -145 61 -169 72 -24 11 -67 29 -95 40 -28 11 -64
27 -81 34 -16 8 -88 39 -159 69 -71 31 -137 63 -148 72 -60 55 23 155 193 233
103 47 106 48 184 75 39 13 115 42 170 66 97 41 135 59 350 160 150 71 265
125 315 147 25 12 83 39 130 61 47 22 182 83 300 137 118 53 240 109 270 122
195 89 336 149 405 175 74 27 88 29 180 24 83 -4 119 -12 210 -44z m2421
-1365 c12 -12 21 -71 24 -152 6 -161 4 -2226 -2 -2360 -9 -182 -13 -188 -94
-149 -108 51 -185 163 -189 274 -2 63 28 166 109 375 62 159 94 295 112 475 6
67 7 276 0 320 -2 14 -6 50 -10 80 -19 150 -60 324 -102 436 -19 53 -37 104
-39 115 -6 29 27 130 99 306 36 89 66 175 66 190 0 15 -9 42 -19 60 -11 17
-18 33 -15 36 5 5 54 1 60 -6z m-5136 -148 c-39 -76 -32 -110 73 -329 74 -155
107 -240 107 -275 0 -13 -13 -52 -29 -87 -95 -209 -141 -461 -136 -743 5 -269
31 -364 195 -720 68 -147 77 -219 39 -320 -27 -73 -60 -110 -128 -144 -94 -48
-157 -59 -158 -28 -1 7 -4 113 -7 237 -6 222 -10 413 -22 1110 -3 195 -7 427
-9 515 -7 321 -5 691 4 730 6 26 22 50 43 68 45 37 52 34 28 -14z m4600 -177
c14 -10 36 -39 50 -63 22 -38 25 -56 25 -139 0 -52 -4 -118 -8 -146 l-8 -52
43 -33 c88 -69 114 -113 153 -259 30 -113 39 -195 40 -350 1 -300 -62 -530
-226 -830 l-41 -75 5 -145 c3 -80 7 -157 11 -171 28 -121 86 -202 198 -277 59
-41 81 -63 71 -72 -9 -9 -43 -28 -163 -92 -137 -73 -248 -135 -740 -416 -256
-146 -485 -276 -510 -290 -25 -14 -107 -60 -184 -104 -76 -43 -141 -78 -143
-78 -3 0 -18 -9 -34 -21 -16 -11 -36 -19 -44 -17 -24 5 21 86 113 203 86 109
117 162 126 215 9 53 19 446 12 474 -3 13 -32 43 -63 67 -73 55 -84 68 -132
159 -47 90 -93 220 -112 315 -19 97 -20 1203 -1 1283 17 76 57 152 105 203 42
45 157 129 176 129 6 0 11 5 11 10 0 6 4 10 9 10 4 0 48 23 96 51 49 28 131
73 184 101 53 28 101 54 106 58 6 4 55 31 110 60 55 29 156 83 225 120 222
119 372 191 414 199 47 8 90 -1 126 -27z m-3668 -147 c124 -49 319 -128 853
-347 94 -38 184 -76 200 -83 148 -65 186 -83 225 -109 92 -60 190 -214 220
-345 17 -72 18 -162 26 -1367 l6 -1031 -30 -59 c-30 -60 -63 -95 -117 -129
-34 -21 -120 -26 -156 -8 -13 7 -69 33 -124 59 -162 75 -241 112 -404 190 -84
41 -154 74 -156 74 -1 0 -78 36 -169 80 -92 44 -169 80 -170 80 -2 0 -74 34
-161 75 -86 41 -158 75 -160 75 -2 0 -54 24 -116 54 -140 66 -185 87 -319 146
-58 26 -105 52 -105 59 0 7 18 25 40 40 48 32 130 131 155 186 42 94 47 123
55 343 l5 122 -59 78 c-160 209 -236 438 -246 732 -6 195 21 358 80 485 38 81
63 111 123 149 l43 27 -7 67 c-3 37 -8 76 -10 87 -20 100 8 195 77 265 94 95
166 96 401 5z m2026 -3182 c6 -132 22 -209 54 -260 26 -44 10 -42 -34 5 -53
55 -59 74 -57 169 3 125 33 193 37 86z"/>
<path d="M3415 6234 c-38 -19 -52 -40 -64 -94 -21 -91 -30 -188 -38 -417 l-6
-172 49 -23 c93 -44 282 -23 299 34 8 23 8 107 1 181 -8 81 -15 153 -21 222
-14 167 -36 244 -77 266 -33 18 -112 19 -143 3z"/>
<path d="M2720 5938 c-181 -48 -380 -240 -380 -364 0 -33 2 -36 23 -30 87 26
202 45 234 40 67 -10 122 -24 171 -42 26 -10 63 -18 82 -18 31 1 35 4 41 36
14 63 2 299 -16 326 -32 50 -91 70 -155 52z"/>
<path d="M4153 5926 c-37 -27 -46 -77 -40 -225 3 -75 8 -144 12 -154 9 -21 18
-21 139 12 99 26 197 27 301 1 99 -24 105 -25 105 -1 0 95 -159 266 -316 342
-80 38 -168 49 -201 25z"/>
<path d="M2980 5533 c-48 -7 -88 -24 -106 -44 -15 -17 -18 -40 -19 -156 l-2
-137 -44 -19 c-81 -34 -169 -49 -264 -45 -98 5 -126 15 -188 70 -35 30 -39 40
-54 121 -14 80 -19 90 -54 122 -53 47 -102 50 -156 9 -45 -34 -55 -56 -54
-123 0 -122 24 -212 58 -226 9 -3 53 0 97 6 l80 12 21 -28 c53 -75 85 -101
147 -123 113 -40 261 -31 368 21 l65 32 1 60 1 59 84 -2 c69 -2 93 2 135 21
l51 22 -3 60 c-9 180 -30 246 -87 277 -23 12 -45 15 -77 11z"/>
<path d="M3940 5518 c-63 -38 -76 -68 -86 -200 -9 -115 -4 -131 48 -154 49
-22 179 -25 217 -5 l24 13 -7 -58 c-7 -65 6 -94 52 -118 81 -42 274 -58 357
-29 57 19 131 84 145 128 12 37 28 43 72 26 13 -4 48 -11 79 -14 97 -11 129
34 131 184 2 117 -56 189 -151 189 -94 0 -128 -45 -132 -175 -2 -55 -5 -63
-38 -95 -96 -91 -283 -104 -447 -30 l-61 27 -2 103 c-2 156 -32 208 -132 224
-25 4 -44 0 -69 -16z"/>
<path d="M5510 5362 c-47 -21 -141 -68 -210 -104 -120 -62 -177 -92 -445 -235
-156 -83 -603 -304 -786 -388 -290 -135 -358 -154 -518 -150 -155 4 -196 18
-941 330 -168 70 -318 133 -335 140 -16 7 -172 75 -345 150 -173 75 -328 143
-345 150 -66 29 -146 55 -187 60 -35 5 -49 2 -70 -14 -44 -35 -53 -81 -27
-143 13 -33 99 -77 359 -188 80 -34 159 -67 175 -75 17 -7 179 -75 360 -150
182 -75 344 -142 360 -150 17 -7 86 -37 155 -65 69 -29 231 -99 360 -155 129
-57 269 -113 310 -126 95 -28 271 -35 375 -14 71 15 260 105 720 343 105 54
289 149 410 211 121 63 256 133 300 156 44 23 116 62 160 85 320 169 352 192
362 252 4 30 0 45 -18 72 -39 58 -65 59 -179 8z"/>
<path d="M3455 5271 c-22 -10 -45 -24 -51 -32 -17 -20 -27 -81 -39 -224 -3
-33 -8 -96 -12 -140 -11 -134 -7 -243 10 -269 39 -59 267 -67 342 -12 16 11
19 26 19 82 0 64 -10 227 -19 306 -2 18 -6 60 -10 93 -14 136 -42 183 -120
204 -54 15 -73 14 -120 -8z"/>
<path d="M4920 3596 c-104 -43 -140 -65 -142 -89 0 -12 -2 -31 -3 -42 -1 -11
-3 -81 -4 -156 l-1 -137 -54 -26 c-107 -53 -157 -147 -159 -301 -1 -78 2 -96
23 -132 13 -24 29 -43 35 -43 6 0 30 9 53 20 84 41 102 25 101 -87 -1 -49 5
-92 14 -114 29 -69 120 -249 127 -254 13 -8 112 237 144 355 8 30 17 87 20
125 7 113 21 134 96 150 86 18 114 58 128 180 15 135 -13 225 -81 258 l-37 19
-57 -31 c-31 -17 -62 -31 -69 -31 -18 0 -20 22 -23 175 -1 77 -5 150 -8 163
-7 28 -30 27 -103 -2z m74 -577 c48 -57 33 -166 -33 -236 -43 -46 -94 -42
-127 9 -44 70 -4 197 76 239 46 25 54 24 84 -12z"/>
<path d="M2091 3567 c-8 -10 -12 -68 -13 -181 -1 -110 -5 -166 -12 -166 -6 0
-42 9 -79 20 -88 25 -121 18 -153 -30 -61 -92 -42 -279 38 -366 15 -17 28 -21
68 -18 44 2 52 0 75 -27 30 -36 33 -49 38 -159 3 -69 11 -102 41 -175 61 -150
129 -279 149 -283 10 -2 17 3 17 12 0 8 16 50 36 93 57 123 81 194 83 252 5
109 20 118 123 76 77 -31 82 -31 106 3 43 61 58 191 32 279 -26 85 -107 163
-183 177 -50 9 -67 17 -78 39 -7 12 -14 93 -16 196 -3 97 -8 179 -11 183 -8 8
-185 74 -223 83 -16 4 -30 1 -38 -8z m145 -573 c76 -36 123 -158 88 -226 -39
-75 -141 -60 -198 30 -49 78 -42 167 17 196 41 20 51 20 93 0z"/>
</g>
</svg>
