<svg xmlns="http://www.w3.org/2000/svg" width="512" height="512" viewBox="0 0 512 512" version="1.1">
	<path d="M 234.456 40.894 C 230.582 41.945, 210.332 50.549, 189.456 60.014 C 129.931 87.001, 82.179 108.845, 74.096 112.783 C 60.303 119.503, 51.134 130.597, 47.375 145.113 C 45.922 150.721, 45.797 155.893, 46.348 187.500 C 46.693 207.300, 47.444 252.075, 48.016 287 C 48.589 321.925, 49.487 353.200, 50.012 356.500 C 51.508 365.896, 56.915 375.756, 64.422 382.778 C 71.629 389.520, 72.198 389.817, 130 416.994 C 150.075 426.433, 184.725 443.129, 207 454.096 C 239.309 470.003, 249.017 474.351, 255 475.593 C 268.033 478.298, 278.508 476.046, 293 467.425 C 321.984 450.182, 391.242 410.297, 415.403 396.933 C 447.478 379.193, 453.853 374.135, 460.082 361.487 L 463.500 354.547 464.254 274.023 C 464.668 229.736, 464.893 180.450, 464.754 164.500 L 464.500 135.500 460.809 127.770 C 455.936 117.565, 449.810 111.155, 440.186 106.193 C 435.959 104.013, 411.800 94.493, 386.500 85.037 C 331.526 64.491, 316.315 58.704, 296.536 50.811 C 270.979 40.613, 268.069 39.831, 254 39.382 C 243.905 39.060, 240.145 39.350, 234.456 40.894 M 239 53.329 C 228.898 57.066, 156.432 90.068, 125.500 105.019 C 116.150 109.538, 103.880 114.753, 98.234 116.609 C 82.030 121.934, 72.356 127.476, 69.448 133.100 C 67.758 136.368, 68.305 138.315, 71.502 140.409 C 72.786 141.250, 103.460 154.282, 139.668 169.368 C 175.876 184.454, 212.250 199.804, 220.500 203.480 C 241.088 212.651, 248.616 215.040, 259.069 215.717 C 267.667 216.274, 267.825 216.331, 266.985 218.540 C 266.513 219.780, 266.436 221.103, 266.814 221.480 C 267.191 221.857, 267.725 273.841, 268 337 C 268.275 400.159, 268.725 452.041, 269 452.293 C 269.275 452.545, 270.578 453.084, 271.896 453.490 L 274.292 454.228 273.699 337.001 C 273.155 229.545, 272.967 219.621, 271.441 217.934 C 269.871 216.200, 269.911 216.068, 272.138 215.633 C 273.437 215.379, 277.036 214.662, 280.135 214.040 C 285.808 212.900, 295.466 208.324, 313 198.466 C 327.067 190.557, 374.220 166.072, 409.500 148.357 C 426.550 139.795, 441.288 132.093, 442.250 131.240 C 449.568 124.759, 435.081 114.181, 412.520 109.532 C 408.132 108.628, 394.407 103.906, 382.020 99.040 C 369.634 94.173, 352.075 87.388, 343 83.963 C 333.925 80.537, 311.875 71.880, 294 64.724 C 263.471 52.504, 261.015 51.691, 253.500 51.319 C 246.870 50.991, 244.387 51.336, 239 53.329 M 247.596 57.313 C 246.225 58.684, 245.017 61.432, 244.629 64.063 C 243.266 73.300, 242.051 88.823, 242.026 97.299 L 242 106.098 246.250 108.027 C 251.667 110.486, 258.333 110.486, 263.750 108.027 C 268.789 105.740, 268.633 107.228, 266.485 82.008 C 264.853 62.851, 263.926 58.762, 260.701 56.503 C 257.314 54.131, 250.348 54.561, 247.596 57.313 M 198 77.937 C 184.628 82.030, 171 95.399, 171 104.423 C 171 106.672, 171.340 107.083, 172.750 106.538 C 173.713 106.167, 177.387 105.192, 180.915 104.371 C 188.165 102.686, 191.948 103.081, 202.321 106.609 C 212.094 109.933, 212.238 109.746, 211.828 94.224 C 211.506 82.051, 211.448 81.778, 208.694 79.411 C 205.857 76.973, 202.612 76.525, 198 77.937 M 304.303 78.149 C 303.094 78.759, 301.657 80.546, 301.108 82.119 C 300.040 85.184, 300.773 105.015, 302.030 107.049 C 302.579 107.936, 304.519 107.645, 309.633 105.907 C 317.897 103.100, 325.941 102.965, 334.777 105.487 C 338.230 106.473, 341.332 107.001, 341.672 106.662 C 342.011 106.322, 341.470 103.897, 340.470 101.272 C 335.573 88.421, 312.798 73.860, 304.303 78.149 M 214.376 108.086 C 209.155 109.600, 208.481 111.252, 208.673 122.071 L 208.846 131.820 203.673 134.069 C 197.373 136.809, 184.979 137.808, 179.546 136.015 C 177.501 135.340, 174.335 133.477, 172.510 131.875 C 169.663 129.375, 169.090 128.084, 168.475 122.783 C 167.909 117.909, 167.166 116.012, 164.956 113.802 C 160.996 109.842, 155.910 109.937, 151.800 114.046 C 148.801 117.045, 148.761 117.221, 149.192 125.439 C 149.493 131.177, 150.189 134.640, 151.418 136.515 C 153.044 138.997, 153.603 139.189, 157.602 138.641 C 160.020 138.310, 163.062 137.772, 164.361 137.446 C 166.357 136.944, 167.126 137.540, 169.322 141.286 C 171.330 144.712, 173.096 146.225, 177.100 147.948 C 184.165 150.987, 195.297 151.037, 203.159 148.064 C 210.374 145.336, 211.424 144.055, 210.611 138.972 C 209.972 134.971, 209.981 134.957, 212.735 135.715 C 216.813 136.838, 222.638 136.265, 226.689 134.343 L 230.257 132.650 229.767 124.042 C 228.940 109.541, 224.660 105.104, 214.376 108.086 M 285.878 109.818 C 282.911 112.468, 282.677 113.196, 281.928 122.068 C 281.347 128.941, 281.453 131.803, 282.316 132.619 C 285.522 135.647, 295.394 136.941, 300.496 135.002 L 303.122 134.003 302.462 138.403 C 301.916 142.049, 302.153 143.153, 303.846 144.846 C 308.247 149.247, 324.186 151.512, 332.101 148.862 C 337.356 147.102, 341.723 143.368, 342.980 139.559 C 343.971 136.558, 344.415 136.207, 346.312 136.924 C 347.515 137.379, 350.825 138.070, 353.668 138.458 C 358.077 139.061, 359.129 138.871, 360.835 137.165 C 363.159 134.841, 364.589 125.954, 363.540 120.362 C 362.596 115.328, 358.095 110.996, 353.827 111.014 C 345.700 111.047, 343 114.127, 343 123.361 C 343 128.189, 342.656 129.112, 340.031 131.320 C 332.574 137.595, 319.335 138.589, 308.611 133.679 L 303 131.111 303 123.705 C 303 114.082, 301.732 110.575, 297.529 108.581 C 292.690 106.284, 289.447 106.629, 285.878 109.818 M 397.398 122.367 C 391.404 125.318, 378.400 132.138, 368.500 137.521 C 339.975 153.033, 289.789 177.483, 279.190 181.032 C 271.251 183.690, 267.964 184.273, 261 184.257 C 250.490 184.232, 243.168 181.875, 210.500 168.001 C 197.850 162.628, 181.669 155.892, 174.542 153.032 C 167.415 150.171, 150.990 143.092, 138.042 137.301 C 112.086 125.690, 105.088 123, 100.843 123 C 94.486 123, 91.680 131.229, 96.250 136.467 C 98.420 138.954, 115.677 146.460, 187 175.935 C 199.375 181.049, 216.250 188.279, 224.500 192.001 C 242.623 200.177, 247.098 201.738, 256.078 203.011 C 263.560 204.072, 273.605 203.109, 280.523 200.668 C 284.352 199.317, 302.112 190.249, 379.309 150.234 C 408.649 135.025, 415.390 131.146, 416.623 128.763 C 419.387 123.418, 416.005 117, 410.425 117 C 409.254 117, 403.392 119.415, 397.398 122.367 M 252.329 126.458 C 250.585 127.216, 248.688 128.714, 248.114 129.786 C 247.541 130.859, 246.401 140.665, 245.582 151.578 C 243.895 174.047, 244.175 175.696, 250.012 177.694 C 257.136 180.131, 268.858 178.794, 271.724 175.216 C 273.014 173.607, 272.901 169.827, 270.848 145.821 C 269.578 130.964, 268.164 127.695, 262.302 126.067 C 257.456 124.721, 256.209 124.770, 252.329 126.458 M 441.204 155.750 C 444.265 159.288, 444.058 162.106, 440.086 170.956 C 435.059 182.156, 431 193.539, 431 196.439 C 431 197.715, 432.139 201.247, 433.532 204.289 C 436.928 211.707, 440.741 228.888, 442.161 243.169 C 443.042 252.035, 443.041 257.798, 442.155 267.169 C 440.694 282.623, 438.281 291.967, 431.417 308.734 C 424.916 324.616, 424.370 330.337, 428.555 338.735 C 431.055 343.750, 437.092 348.768, 442.609 350.416 C 447.398 351.846, 447.286 354.138, 447.396 252.629 C 447.508 149.519, 447.744 154, 442.223 154 C 439.901 154, 439.816 154.145, 441.204 155.750 M 68.184 163.584 C 62.884 167.296, 62.928 166.691, 63.999 221.691 C 64.544 249.636, 65.289 291.941, 65.656 315.703 C 66.023 339.464, 66.632 359.405, 67.009 360.015 C 67.857 361.386, 77.546 358.171, 81.893 355.076 C 86.127 352.061, 89.308 344.859, 89.389 338.102 C 89.447 333.242, 88.640 330.777, 83.305 319.500 C 75.837 303.715, 73.517 296.959, 71.393 284.814 C 67.794 264.229, 72.054 233.281, 81.019 214.883 C 83.258 210.289, 83.260 210.236, 81.461 204.516 C 80.467 201.354, 76.986 193.532, 73.727 187.133 C 67.327 174.570, 66.433 170.041, 69.444 165.446 C 71.551 162.230, 71.090 161.548, 68.184 163.584 M 391.500 177.862 C 389.300 178.862, 377.150 185.199, 364.500 191.945 C 305.581 223.361, 300.792 226.380, 295.480 235.444 C 290.435 244.052, 290.068 248.123, 290.293 293 C 290.491 332.663, 290.602 334.904, 292.807 343.638 C 294.076 348.664, 297.001 356.539, 299.307 361.138 C 302.800 368.103, 304.335 370.057, 308.500 372.834 C 311.250 374.668, 313.789 376.918, 314.142 377.834 C 314.495 378.750, 314.538 387.600, 314.237 397.500 C 313.615 417.936, 314.133 416.410, 303.104 430.289 C 295.013 440.470, 292.661 446.566, 298.144 443.142 C 299.274 442.437, 310.841 435.895, 323.849 428.605 C 336.857 421.314, 361.269 407.435, 378.097 397.761 C 394.925 388.087, 413.228 377.897, 418.770 375.116 C 424.311 372.335, 429.096 369.653, 429.403 369.156 C 429.710 368.660, 427.086 366.394, 423.571 364.121 C 412.193 356.762, 408 347.646, 408 330.264 C 408 319.956, 408.025 319.849, 411.950 313.341 C 426.459 289.285, 431.489 257.536, 425.074 230.500 C 422.424 219.332, 419.699 214.382, 414.149 210.654 C 410.678 208.323, 409.953 207.337, 410.451 205.627 C 410.792 204.457, 411.345 200.246, 411.679 196.269 C 413.036 180.100, 404.236 172.073, 391.500 177.862 M 113.481 185.394 C 109.514 187.122, 104.518 192.901, 102.991 197.526 C 101.834 201.032, 101.953 204.870, 103.564 216.083 C 104.201 220.520, 104.122 220.707, 101.070 221.971 C 90.556 226.326, 84.158 248.827, 86.135 274.500 C 87.491 292.106, 93.752 309.072, 103.481 321.500 L 108.179 327.500 107.748 340.500 C 107.407 350.803, 106.859 354.683, 105.105 359.202 C 102.776 365.204, 96.026 373.578, 91.614 375.939 C 88.573 377.566, 88.286 378.811, 90.750 379.679 C 95.599 381.385, 162.934 412.843, 217 438.660 C 227.862 443.847, 231.162 445.006, 233.890 444.593 C 239.226 443.786, 244.487 439.691, 247.092 434.316 L 249.427 429.500 249.131 345.500 C 248.968 299.300, 248.448 259.475, 247.976 257 C 245.248 242.689, 237.729 231.352, 227.500 226.128 C 225.300 225.004, 216.300 221.115, 207.500 217.485 C 162.326 198.850, 132.032 186.622, 128 185.393 C 122.395 183.685, 117.402 183.685, 113.481 185.394 M 357.989 249.802 C 354.408 251.286, 350.920 252.864, 350.239 253.309 C 349.359 253.884, 349 257.878, 349 267.095 L 349 280.071 344.634 281.942 C 337.316 285.079, 332.997 293.410, 333.004 304.376 C 333.006 308.716, 333.585 311.447, 334.989 313.750 C 336.079 315.538, 337.204 317, 337.489 317 C 337.774 317, 339.648 316.120, 341.654 315.045 C 344.451 313.546, 345.758 313.336, 347.264 314.141 C 348.968 315.053, 349.168 315.994, 348.785 321.293 C 348.368 327.065, 348.637 327.987, 353.791 338.410 L 359.238 349.427 360.997 345.963 C 361.964 344.059, 364.611 337.440, 366.878 331.255 C 370.105 322.451, 371 318.621, 371 313.616 C 371 305.690, 372.695 303.261, 378.956 302.209 C 385.145 301.168, 387.246 297.438, 387.755 286.586 C 388.186 277.380, 386.366 272.518, 381.611 270.177 C 379.201 268.991, 378.471 269.120, 374.534 271.427 C 372.119 272.842, 369.661 274, 369.072 274 C 368.362 274, 368 269.437, 368 260.500 C 368 244.888, 368.517 245.440, 357.989 249.802 M 152 263.500 C 152 270.925, 151.845 277, 151.657 277 C 151.468 277, 148.750 276.118, 145.616 275.040 C 138.852 272.713, 135.863 273.430, 133.531 277.940 C 129.899 284.963, 131.064 296.998, 135.980 303.248 C 137.692 305.424, 138.575 305.733, 141.839 305.295 C 145.154 304.850, 145.978 305.156, 147.841 307.525 C 149.594 309.754, 150 311.609, 150 317.396 C 150 323.634, 150.558 325.809, 154.472 334.826 C 156.932 340.492, 159.940 346.900, 161.156 349.064 C 163.318 352.910, 165 354.136, 165 351.866 C 165 351.242, 167.025 346.457, 169.500 341.232 C 173.071 333.694, 174 330.639, 174 326.438 C 174 317.832, 175.894 316.969, 184.808 321.517 C 187.921 323.105, 188.229 323.103, 190.021 321.481 C 194.279 317.628, 195.577 305.715, 192.533 298.418 C 190.188 292.796, 185.311 288.131, 181.064 287.447 C 172.785 286.113, 173.088 286.721, 172.778 270.815 L 172.500 256.562 164 253.356 C 151.103 248.492, 152 247.734, 152 263.500 M 357.615 291.088 C 352.523 295.093, 350.530 302.338, 353.150 307.316 C 355.619 312.007, 359.757 312.265, 363.385 307.955 C 368.114 302.335, 368.905 294.939, 365.227 290.750 C 363.195 288.437, 360.854 288.541, 357.615 291.088 M 155 294 C 150.971 298.029, 153.405 307.598, 159.468 311.571 C 165.208 315.332, 171 312.194, 171 305.323 C 171 301.304, 169.759 298.576, 166.191 294.750 C 163.038 291.370, 157.970 291.030, 155 294 M 284.250 418.684 C 283.556 419.897, 283 424.198, 283 428.358 C 283 434.969, 283.305 436.210, 285.608 438.946 C 287.042 440.650, 289.063 442.498, 290.098 443.052 C 291.701 443.910, 291.622 443.532, 289.567 440.503 C 287.263 437.108, 286.515 433.194, 285.743 420.500 C 285.516 416.762, 285.418 416.643, 284.250 418.684" stroke="none" fill="black" fill-rule="evenodd"/>
</svg>